<svg xmlns="http://www.w3.org/2000/svg" viewBox="0 0 600 900">
  <defs>
    <linearGradient id="glass" x1="0" y1="0" x2="1" y2="1">
      <stop offset="0" stop-color="#596063"/>
      <stop offset=".5" stop-color="#171b1d"/>
      <stop offset="1" stop-color="#454b4d"/>
    </linearGradient>
  </defs>
  <rect width="600" height="900" fill="#100b08"/>
  <rect x="34" y="28" width="532" height="844" rx="10" fill="#665538" stroke="#ad9360" stroke-width="18"/>
  <rect x="66" y="60" width="468" height="780" fill="url(#glass)"/>
  <g fill="#090b0c" stroke="#9ca4a5" stroke-width="7">
    <path d="M292 60 256 286 67 184V60Z"/><path d="m292 60-36 226 157 113 121-199V60Z"/>
    <path d="m67 184 189 102-73 244L67 469Z"/><path d="m256 286 157 113-82 181-148-50Z"/>
    <path d="m413 399 121-199v321l-203 59Z"/><path d="m67 469 116 61 42 310H67Z"/>
    <path d="m183 530 148 50 77 260H225Z"/><path d="m331 580 203-59v319H408Z"/>
  </g>
  <g stroke="#d8dedc" stroke-width="5" opacity=".48"><path d="m256 286 52-91"/><path d="m331 580-61 97"/><path d="m183 530-75 48"/><path d="m413 399 63 76"/></g>
</svg>
